<svg width="448" height="438" viewBox="0 0 448 438" fill="none" xmlns="http://www.w3.org/2000/svg">
<path d="M190.45 29.9L212.65 7.69999C222.05 -1.70001 237.25 -1.70001 246.55 7.69999L440.95 202C450.35 211.4 450.35 226.6 440.95 235.9L246.55 430.3C237.15 439.7 221.95 439.7 212.65 430.3L190.45 408.1C180.95 398.6 181.15 383.1 190.85 373.8L311.35 259L23.95 259C10.65 259 -0.0500018 248.3 -0.0500006 235L-0.0499978 203C-0.0499967 189.7 10.65 179 23.95 179L311.35 179L190.85 64.2C181.05 54.9 180.85 39.4 190.45 29.9Z" fill="black"/>
</svg>
