<svg width="284" height="47" viewBox="0 0 284 47" fill="none" xmlns="http://www.w3.org/2000/svg">
<g clip-path="url(#clip0_1_9)">
<path d="M93.781 22.914L89.6663 25.2897C88.2177 26.126 87.7213 27.9783 88.5577 29.427C89.394 30.8757 91.2463 31.372 92.695 30.5357L96.8097 28.16C97.23 27.9173 97.7553 28.2207 97.7553 28.706V33.9577H87.9343C84.5777 33.9577 82.48 30.324 84.158 27.417L88.9863 19.054L93.781 21.8224C94.2013 22.0647 94.2013 22.6714 93.781 22.914Z" fill="white"/>
<path d="M87.924 18.4403C86.4753 17.604 85.979 15.7517 86.8153 14.303C87.6517 12.8543 89.504 12.358 90.9527 13.1943L92.015 13.8077L88.9863 19.0533L87.924 18.4403Z" fill="white"/>
<path d="M113.387 33.9573H103.566V28.7057C103.566 28.2203 104.091 27.917 104.512 28.1597L108.626 30.5353C110.075 31.3717 111.927 30.8753 112.764 29.4267C113.6 27.978 113.104 26.1257 111.655 25.2893L107.54 22.9137C107.12 22.671 107.12 22.0643 107.54 21.8217L112.335 19.0533L117.163 27.4167C118.842 30.3237 116.744 33.9573 113.387 33.9573Z" fill="white"/>
<path d="M103.566 16.0303V11.279C103.566 10.9937 103.526 10.7173 103.453 10.4553C102.664 7.65766 98.6577 7.65766 97.8687 10.4553C97.7947 10.7173 97.7553 10.9933 97.7553 11.279V16.0303C97.7553 16.5157 97.23 16.819 96.8097 16.5763L92.015 13.808L96.8433 5.44499C97.6903 3.97799 99.1787 3.25166 100.661 3.26533C102.143 3.25166 103.631 3.97833 104.478 5.44533L109.306 13.808L104.512 16.5763C104.091 16.819 103.566 16.5157 103.566 16.0303Z" fill="white"/>
<path d="M110.369 13.1946C111.817 12.3583 113.67 12.8546 114.506 14.3033C115.342 15.752 114.846 17.6043 113.397 18.4406L112.335 19.054L109.306 13.8083L110.369 13.1946Z" fill="white"/>
<path d="M103.566 33.9573V35.469C103.566 37.1003 102.276 38.4303 100.661 38.495C99.0453 38.4303 97.7553 37.1003 97.7553 35.469V33.9573H100.661H103.566Z" fill="white"/>
</g>
<path d="M76.3256 38.88H70.5176C70.0376 37.024 69.7976 35.04 69.7976 32.928V24.384C69.7976 23.36 69.3816 22.848 68.5496 22.848H67.7816V38.88H61.8776V0.47998H69.1256C70.7896 0.47998 72.2616 1.00798 73.5416 2.06398C74.8216 3.11998 75.4616 4.76798 75.4616 7.00798V16.32C75.4616 17.856 74.6136 19.184 72.9176 20.304C74.6776 21.456 75.5576 22.784 75.5576 24.288V32.448C75.5576 34.24 75.8136 36.384 76.3256 38.88ZM69.6536 15.984V7.87198C69.6536 6.84798 69.3176 6.33598 68.6456 6.33598H67.7816V17.52H68.6456C69.3176 17.52 69.6536 17.008 69.6536 15.984Z" fill="white"/>
<path d="M59.2335 38.88H47.5695V0.47998H59.2335V5.85598H53.5215V16.032H57.2655V21.888H53.5215V33.024H59.2335V38.88Z" fill="white"/>
<path d="M44.9254 38.88H33.2614V0.47998H44.9254V5.85598H39.2134V16.032H42.9574V21.888H39.2134V33.024H44.9254V38.88Z" fill="white"/>
<path d="M30.2805 32.304C30.2805 34.288 29.6565 35.968 28.4085 37.344C27.1925 38.688 25.6245 39.36 23.7045 39.36C21.7845 39.36 20.1685 38.672 18.8565 37.296C17.5445 35.92 16.8885 34.256 16.8885 32.304V0.47998H22.5525V32.16C22.5525 32.48 22.6645 32.752 22.8885 32.976C23.1125 33.2 23.3845 33.312 23.7045 33.312C24.0245 33.312 24.2965 33.2 24.5205 32.976C24.7445 32.752 24.8565 32.48 24.8565 32.16V0.47998H30.2805V32.304Z" fill="white"/>
<path d="M14.112 32.304C14.112 33.968 13.6 35.44 12.576 36.72C11.552 38 10.256 38.816 8.688 39.168C8.464 39.776 8.352 40.416 8.352 41.088C8.352 42.112 8.656 42.624 9.264 42.624C9.872 42.624 10.176 42.128 10.176 41.136C10.176 40.624 10.096 40.24 9.936 39.984H12.288C12.608 40.784 12.768 41.536 12.768 42.24C12.768 43.392 12.416 44.304 11.712 44.976C11.008 45.68 10 46.032 8.688 46.032C5.84 46.032 4.416 44.624 4.416 41.808C4.416 40.752 4.624 39.84 5.04 39.072C3.568 38.624 2.352 37.792 1.392 36.576C0.464 35.328 0 33.904 0 32.304V7.056C0 5.104 0.688 3.44 2.064 2.064C3.44 0.688001 5.104 0 7.056 0C9.008 0 10.672 0.688001 12.048 2.064C13.424 3.44 14.112 5.104 14.112 7.056V32.304ZM8.208 32.16V7.248C8.208 6.928 8.096 6.656 7.872 6.432C7.648 6.208 7.376 6.096 7.056 6.096C6.736 6.096 6.464 6.208 6.24 6.432C6.016 6.656 5.904 6.928 5.904 7.248V32.16C5.904 32.48 6.016 32.752 6.24 32.976C6.464 33.2 6.736 33.312 7.056 33.312C7.376 33.312 7.648 33.2 7.872 32.976C8.096 32.752 8.208 32.48 8.208 32.16Z" fill="white"/>
<path d="M283.32 38.88H277.416V12.96L273.528 38.88H269.64L266.136 12.96V38.88H260.808V0.47998H270.024L272.184 18.48L274.488 0.47998H283.32V38.88Z" fill="white"/>
<path d="M258.824 38.88H252.776L252.44 32.4H249.752L249.224 38.88H243.896L247.784 0.47998H254.84L258.824 38.88ZM252.104 26.544L251.336 13.44L250.232 26.544H252.104Z" fill="white"/>
<path d="M242.124 32.352C242.124 34.592 241.516 36.24 240.3 37.296C239.116 38.352 237.708 38.88 236.076 38.88H228.348V0.47998H236.076C237.708 0.47998 239.116 1.00798 240.3 2.06398C241.516 3.11998 242.124 4.76798 242.124 7.00798V32.352ZM236.604 31.536V7.87198C236.604 6.84798 236.252 6.33598 235.548 6.33598H234.252V33.072H235.548C236.252 33.072 236.604 32.56 236.604 31.536Z" fill="white"/>
<path d="M226.472 38.88H220.664C220.184 37.024 219.944 35.04 219.944 32.928V24.384C219.944 23.36 219.528 22.848 218.696 22.848H217.928V38.88H212.024V0.47998H219.272C220.936 0.47998 222.408 1.00798 223.688 2.06398C224.968 3.11998 225.608 4.76798 225.608 7.00798V16.32C225.608 17.856 224.76 19.184 223.064 20.304C224.824 21.456 225.704 22.784 225.704 24.288V32.448C225.704 34.24 225.96 36.384 226.472 38.88ZM219.8 15.984V7.87198C219.8 6.84798 219.464 6.33598 218.792 6.33598H217.928V17.52H218.792C219.464 17.52 219.8 17.008 219.8 15.984Z" fill="white"/>
<path d="M209.38 38.88H197.716V0.47998H209.38V5.85598H203.668V16.032H207.412V21.888H203.668V33.024H209.38V38.88Z" fill="white"/>
<path d="M195.609 6.33598H191.913V38.88H186.009V6.33598H182.073V0.47998H195.609V6.33598Z" fill="white"/>
<path d="M180.714 30.48C180.714 33.008 180.074 35.12 178.794 36.816C177.546 38.512 175.834 39.36 173.658 39.36C171.45 39.36 169.642 38.688 168.234 37.344C166.858 35.968 166.17 34.288 166.17 32.304V26.688H171.594V31.728C171.594 32.304 171.754 32.8 172.074 33.216C172.394 33.6 172.826 33.792 173.37 33.792C174.49 33.792 175.05 33.104 175.05 31.728C175.05 31.152 174.986 30.544 174.858 29.904C174.73 29.264 174.586 28.72 174.426 28.272C174.298 27.824 174.042 27.216 173.658 26.448C173.306 25.648 173.034 25.104 172.842 24.816C172.682 24.496 172.33 23.872 171.786 22.944C171.274 21.984 170.954 21.376 170.826 21.12C167.978 15.808 166.554 11.728 166.554 8.88C166.554 6.192 167.178 4.048 168.426 2.448C169.706 0.816 171.498 0 173.802 0C175.722 0 177.322 0.688001 178.602 2.064C179.882 3.44 180.522 5.104 180.522 7.056V12.672H175.098V7.296C175.098 6.144 174.666 5.568 173.802 5.568C173.386 5.568 173.018 5.728 172.698 6.048C172.378 6.336 172.218 6.752 172.218 7.296C172.218 9.088 172.49 10.752 173.034 12.288C173.578 13.792 174.554 15.856 175.962 18.48C176.122 18.768 176.426 19.344 176.874 20.208C177.354 21.072 177.69 21.696 177.882 22.08C178.074 22.432 178.362 22.992 178.746 23.76C179.13 24.496 179.402 25.104 179.562 25.584C179.722 26.032 179.914 26.56 180.138 27.168C180.362 27.776 180.506 28.352 180.57 28.896C180.666 29.44 180.714 29.968 180.714 30.48Z" fill="white"/>
<path d="M164.085 38.88H158.181V12.96L154.293 38.88H150.405L146.901 12.96V38.88H141.573V0.47998H150.789L152.949 18.48L155.253 0.47998H164.085V38.88Z" fill="white"/>
<path d="M139.589 38.88H133.541L133.205 32.4H130.517L129.989 38.88H124.661L128.549 0.47998H135.605L139.589 38.88ZM132.869 26.544L132.101 13.44L130.997 26.544H132.869Z" fill="white"/>
<defs>
<clipPath id="clip0_1_9">
<rect width="36" height="36" fill="white" transform="matrix(-1 0 0 1 118.661 2.88)"/>
</clipPath>
</defs>
</svg>
