<svg width="200" height="200" viewBox="0 0 200 200" fill="none" xmlns="http://www.w3.org/2000/svg">
<path d="M14.9055 187.089C14.9055 182.796 12.0666 180.47 8.28887 180.47C4.51109 180.47 1.67035 182.796 1.67035 187.089C1.67035 191.381 4.50924 193.706 8.28702 193.706C9.3685 193.706 10.3629 193.511 11.1796 193.085L11.8722 194.096H16.1129L13.7703 190.991C14.5166 190.017 14.9055 188.685 14.9055 187.089ZM8.28887 190.656C6.99442 190.656 5.64628 189.928 5.64628 187.089C5.64628 184.25 6.99442 183.522 8.28887 183.522C9.58331 183.522 10.9315 184.25 10.9315 187.089C10.9315 189.928 9.58331 190.656 8.28887 190.656Z" fill="black"/>
<path d="M24.7185 188.402C24.7185 189.874 24.0259 190.656 22.6963 190.656C21.3666 190.656 20.674 189.874 20.674 188.402V180.756H16.7703V188.757C16.7703 192.181 19.3259 193.707 22.6963 193.707C26.0666 193.707 28.6222 192.181 28.6222 188.757V180.756H24.7185V188.402Z" fill="black"/>
<path d="M30.9648 193.422H40.9518V190.407H34.8852V188.367H40.5981V185.563H34.8852V183.683H40.9518V180.756H30.9648V193.422Z" fill="black"/>
<path d="M43.0111 193.422H53V190.407H46.9315V188.367H52.6444V185.563H46.9315V183.683H53V180.756H43.0111V193.422Z" fill="black"/>
<path d="M66.7314 185.083C66.7314 182.315 64.8685 180.754 61.7814 180.754H55.0574V193.422H58.9611V189.413H60.4926L62.6333 193.422H67.1574L64.4518 188.898C65.9092 188.23 66.7314 186.922 66.7314 185.083ZM61.0907 186.485H58.9611V183.681H61.0907C62.2092 183.681 62.7574 184.231 62.7574 185.083C62.7574 185.935 62.2074 186.485 61.0907 186.485Z" fill="black"/>
<path d="M76.8463 180.756L72.5185 193.424H76.5981L77.2981 191.046H81.6296L82.3463 193.424H86.4981L82.1703 180.756H76.8463ZM78.0796 188.383L79.4 183.894H79.4703L80.8241 188.383H78.0796Z" fill="black"/>
<path d="M95.4759 187.604H95.4037L93.8778 180.756H88.1296V193.422H91.6778V184.924H91.75L94.0556 193.422H96.7167L99.0241 184.924H99.0944V193.422H102.713V180.756H97.0019L95.4759 187.604Z" fill="black"/>
<path d="M111.62 185.581L109.687 185.085C108.907 184.891 108.357 184.694 108.357 184.163C108.357 183.631 108.961 183.222 109.883 183.222C111.107 183.222 111.676 183.807 111.746 184.678L115.454 184.446C115.117 181.82 112.917 180.472 110.059 180.472C106.956 180.472 104.559 181.731 104.559 184.446C104.559 187.178 106.689 187.728 108.587 188.243L110.219 188.685C111.407 189.004 111.922 189.217 111.922 189.874C111.922 190.548 111.159 190.885 110.237 190.885C109.031 190.885 108.126 190.3 108.056 189.076L104.206 189.467C104.419 192.27 107.08 193.707 110.202 193.707C113.254 193.707 115.896 192.589 115.896 189.715C115.896 186.646 113.626 186.096 111.62 185.581Z" fill="black"/>
<path d="M116.767 183.948H120.6V193.422H124.502V183.948H128.333V180.756H116.767V183.948Z" fill="black"/>
<path d="M129.967 193.422H139.956V190.407H133.889V188.367H139.602V185.563H133.889V183.683H139.956V180.756H129.967V193.422Z" fill="black"/>
<path d="M153.689 185.083C153.689 182.315 151.826 180.754 148.739 180.754H142.015V193.422H145.918V189.413H147.45L149.591 193.422H154.115L151.409 188.898C152.867 188.23 153.689 186.922 153.689 185.083ZM148.046 186.485H145.917V183.681H148.046C149.165 183.681 149.715 184.231 149.715 185.083C149.715 185.935 149.165 186.485 148.046 186.485Z" fill="black"/>
<path d="M160.963 180.756H155.57V193.424H160.963C164.972 193.424 167.83 191.631 167.83 187.091C167.83 182.546 164.972 180.756 160.963 180.756ZM160.307 190.496H159.474V183.683H160.307C162.489 183.683 163.856 184.233 163.856 187.089C163.856 189.946 162.489 190.496 160.307 190.496Z" fill="black"/>
<path d="M172.461 180.756L168.133 193.424H172.213L172.913 191.046H177.244L177.961 193.424H182.113L177.785 180.756H172.461ZM173.694 188.383L175.015 183.894H175.085L176.439 188.383H173.694Z" fill="black"/>
<path d="M192.617 180.756L191.091 187.604H191.018L189.493 180.756H183.744V193.422H187.294V184.924H187.365L189.67 193.422H192.331L194.639 184.924H194.709V193.422H198.33V180.756H192.617Z" fill="black"/>
<path d="M131.554 98.1278L150.867 109.278C157.667 113.204 159.996 121.898 156.07 128.696C152.144 135.496 143.45 137.826 136.652 133.9L117.339 122.75C115.367 121.611 112.9 123.035 112.9 125.313V149.963H158.998C174.754 149.963 184.6 132.907 176.722 119.263L154.059 80.0111L131.554 93.0037C129.581 94.1426 129.581 96.9907 131.554 98.1278Z" fill="black"/>
<path d="M159.046 77.1315C165.846 73.2055 168.176 64.5111 164.25 57.713C160.324 50.913 151.63 48.5833 144.831 52.5093L139.844 55.3889L154.059 80.0111L159.046 77.1315Z" fill="black"/>
<path d="M39.5296 149.963H85.6277V125.313C85.6277 123.035 83.1629 121.611 81.1889 122.75L61.8759 133.9C55.0759 137.826 46.3833 135.496 42.4574 128.696C38.5314 121.896 40.8611 113.204 47.6611 109.278L66.974 98.1278C68.9463 96.9889 68.9463 94.1426 66.974 93.0037L44.4685 80.0111L21.8055 119.263C13.9277 132.907 23.774 149.963 39.5296 149.963Z" fill="black"/>
<path d="M85.6259 65.8203V43.5185C85.6259 42.1778 85.8111 40.8815 86.1574 39.6537C89.8593 26.5222 108.665 26.5222 112.367 39.6537C112.713 40.8833 112.898 42.1796 112.898 43.5185V65.8203C112.898 68.0981 115.363 69.5222 117.337 68.3833L139.843 55.3907L117.18 16.1352C113.204 9.24997 106.219 5.83886 99.263 5.90368C92.3056 5.83886 85.3204 9.24997 81.3463 16.1352L58.6833 55.3889L81.1889 68.3815C83.1611 69.5203 85.6259 68.0963 85.6259 65.8203Z" fill="black"/>
<path d="M53.6963 52.5093C46.8963 48.5833 38.2037 50.913 34.2777 57.713C30.3518 64.513 32.6814 73.2055 39.4814 77.1315L44.4685 80.0111L58.6833 55.3889L53.6963 52.5093Z" fill="black"/>
<path d="M85.6259 149.963V157.057C85.6259 164.715 91.6796 170.956 99.263 171.261C106.846 170.957 112.9 164.715 112.9 157.057V149.963H99.263H85.6259Z" fill="black"/>
</svg>
