<svg width="300" height="300" viewBox="0 0 300 300" fill="none" xmlns="http://www.w3.org/2000/svg">
<path d="M92.6695 166.95L58.3806 186.747C46.3084 193.717 42.1723 209.153 49.1417 221.225C56.1112 233.297 71.5473 237.433 83.6195 230.464L117.908 210.667C121.411 208.644 125.789 211.172 125.789 215.217V258.981H43.9473C15.9751 258.981 -1.50548 228.7 12.4779 204.475L52.714 134.783L92.6695 157.853C96.1723 159.872 96.1723 164.928 92.6695 166.95Z" fill="black"/>
<path d="M43.8611 129.669C31.7889 122.7 27.6528 107.264 34.6222 95.1917C41.5917 83.1194 57.0278 78.9833 69.1 85.9528L77.9528 91.0639L52.7139 134.778L43.8611 129.669Z" fill="black"/>
<path d="M256.053 258.978H174.211V215.214C174.211 211.169 178.589 208.642 182.092 210.664L216.381 230.461C228.453 237.431 243.889 233.294 250.858 221.222C257.828 209.15 253.692 193.714 241.619 186.744L207.331 166.947C203.828 164.925 203.828 159.869 207.331 157.847L247.286 134.778L287.522 204.472C301.508 228.697 284.025 258.978 256.053 258.978Z" fill="black"/>
<path d="M174.211 109.586V69.9917C174.211 67.6139 173.881 65.3111 173.267 63.1278C166.692 39.8139 133.308 39.8139 126.733 63.1278C126.117 65.3111 125.789 67.6111 125.789 69.9917V109.586C125.789 113.631 121.411 116.158 117.908 114.136L77.9528 91.0667L118.189 21.375C125.247 9.15 137.65 3.09722 150 3.21111C162.35 3.09722 174.753 9.15278 181.811 21.3778L222.047 91.0667L182.092 114.136C178.589 116.158 174.211 113.631 174.211 109.586Z" fill="black"/>
<path d="M230.9 85.9556C242.972 78.9861 258.408 83.1222 265.378 95.1944C272.347 107.267 268.211 122.703 256.139 129.672L247.286 134.783L222.047 91.0694L230.9 85.9556Z" fill="black"/>
<path d="M174.211 258.978V271.575C174.211 285.169 163.461 296.253 150 296.792C136.539 296.253 125.789 285.169 125.789 271.575V258.978H150H174.211Z" fill="black"/>
</svg>
