<?xml version="1.0" standalone="no"?>
<!DOCTYPE svg PUBLIC "-//W3C//DTD SVG 20010904//EN"
 "http://www.w3.org/TR/2001/REC-SVG-20010904/DTD/svg10.dtd">
<svg version="1.0" xmlns="http://www.w3.org/2000/svg"
 width="300.000000pt" height="300.000000pt" viewBox="0 0 300.000000 300.000000"
 preserveAspectRatio="xMidYMid meet">
<metadata>
Created by potrace 1.14, written by Peter Selinger 2001-2017
</metadata>
<g transform="translate(0.000000,300.000000) scale(0.100000,-0.100000)"
fill="#000000" stroke="none">
<path d="M1392 2952 c-115 -39 -169 -92 -270 -267 -41 -71 -99 -173 -129 -225
-31 -52 -66 -113 -78 -135 -13 -22 -48 -83 -78 -135 -30 -52 -53 -98 -51 -101
8 -14 410 -239 426 -239 40 0 46 34 46 270 0 212 1 229 22 278 67 156 269 194
389 74 67 -67 73 -98 73 -359 0 -120 4 -226 9 -235 21 -41 46 -33 247 83 240
137 226 126 209 153 -8 12 -29 48 -47 81 -18 33 -75 131 -127 219 -51 87 -93
161 -93 163 0 3 -8 17 -18 31 -11 15 -36 59 -57 97 -83 154 -154 220 -270 249
-68 18 -148 17 -203 -2z"/>
<path d="M517 2169 c-126 -28 -200 -119 -201 -249 0 -103 49 -179 156 -237 26
-14 48 -30 48 -35 0 -5 -94 -172 -210 -371 -239 -415 -251 -446 -226 -581 14
-75 83 -176 153 -225 26 -18 113 -54 146 -60 4 0 202 -1 441 -1 l434 0 0 -73
c0 -92 8 -131 37 -182 61 -103 195 -149 296 -101 54 25 107 78 129 129 18 40
27 126 21 210 -1 16 -20 17 -241 17 l-240 0 -1 33 c0 17 -1 120 -1 227 -1 251
-7 261 -124 198 -32 -17 -66 -36 -74 -43 -8 -7 -40 -25 -70 -41 -30 -15 -62
-33 -70 -40 -36 -29 -143 -75 -185 -81 -91 -11 -194 42 -243 126 -23 40 -27
57 -27 126 0 121 33 167 176 250 46 27 96 56 110 65 14 8 63 35 108 60 83 46
100 67 87 108 -4 10 -24 28 -46 38 -22 10 -40 22 -40 27 0 4 -4 7 -8 7 -9 0
-302 166 -315 179 -6 6 40 95 93 181 6 8 41 69 79 135 80 137 81 126 -24 175
-70 33 -115 40 -168 29z"/>
<path d="M2392 2169 c-50 -9 -168 -72 -165 -87 1 -5 57 -104 123 -218 111
-190 120 -209 104 -221 -9 -7 -102 -61 -206 -120 -192 -110 -209 -125 -194
-170 6 -15 77 -60 260 -161 176 -98 225 -157 226 -278 1 -127 -92 -232 -221
-249 -64 -9 -111 6 -225 71 -55 31 -141 81 -193 110 -158 91 -158 91 -159
-209 l-1 -227 432 0 c469 0 500 3 581 56 141 91 201 259 150 418 -14 46 -72
149 -315 567 -60 103 -109 191 -109 196 0 6 22 22 48 36 130 71 185 190 146
319 -20 64 -94 140 -154 156 -66 18 -80 20 -128 11z"/>
</g>
</svg>
